<svg width="17" height="16" viewBox="0 0 17 16" fill="none" xmlns="http://www.w3.org/2000/svg">
<mask id="mask0_40002993_7495" style="mask-type:alpha" maskUnits="userSpaceOnUse" x="0" y="0" width="17" height="16">
<rect x="0.5" width="16" height="16" fill="#D9D9D9"/>
</mask>
<g mask="url(#mask0_40002993_7495)">
<path d="M4.03866 14.3333C3.70188 14.3333 3.41683 14.2167 3.1835 13.9833C2.95016 13.75 2.8335 13.465 2.8335 13.1282V4.20518C2.8335 3.8684 2.95016 3.58334 3.1835 3.35001C3.41683 3.11668 3.70188 3.00001 4.03866 3.00001H4.96166V2.10251C4.96166 1.9564 5.01061 1.8344 5.1085 1.73651C5.20638 1.63873 5.32838 1.58984 5.4745 1.58984C5.62072 1.58984 5.74272 1.63873 5.8405 1.73651C5.93839 1.8344 5.98733 1.9564 5.98733 2.10251V3.00001H11.0387V2.08984C11.0387 1.94795 11.0865 1.82912 11.1822 1.73334C11.2779 1.63768 11.3968 1.58984 11.5387 1.58984C11.6806 1.58984 11.7993 1.63768 11.895 1.73334C11.9908 1.82912 12.0387 1.94795 12.0387 2.08984V3.00001H12.9617C13.2984 3.00001 13.5835 3.11668 13.8168 3.35001C14.0502 3.58334 14.1668 3.8684 14.1668 4.20518V13.1282C14.1668 13.465 14.0502 13.75 13.8168 13.9833C13.5835 14.2167 13.2984 14.3333 12.9617 14.3333H4.03866ZM4.03866 13.3333H12.9617C13.013 13.3333 13.06 13.312 13.1027 13.2692C13.1454 13.2265 13.1668 13.1795 13.1668 13.1282V6.87184H3.8335V13.1282C3.8335 13.1795 3.85488 13.2265 3.89766 13.2692C3.94033 13.312 3.98733 13.3333 4.03866 13.3333ZM3.8335 5.87184H13.1668V4.20518C13.1668 4.15384 13.1454 4.10684 13.1027 4.06418C13.06 4.0214 13.013 4.00001 12.9617 4.00001H4.03866C3.98733 4.00001 3.94033 4.0214 3.89766 4.06418C3.85488 4.10684 3.8335 4.15384 3.8335 4.20518V5.87184Z" fill="#000091"/>
<path d="M6.32767 10.4112C6.21701 10.5216 6.08001 10.5768 5.91667 10.5768C5.75323 10.5768 5.61623 10.5215 5.50567 10.4108C5.39523 10.3002 5.34001 10.1632 5.34001 9.99984C5.34001 9.8364 5.39534 9.6994 5.50601 9.58884C5.61667 9.4784 5.75367 9.42318 5.91701 9.42318C6.08045 9.42318 6.21745 9.47851 6.32801 9.58918C6.43856 9.69984 6.49384 9.83684 6.49384 10.0002C6.49384 10.1636 6.43845 10.3006 6.32767 10.4112Z" fill="#000091"/>
<path d="M8.91101 10.4112C8.80034 10.5216 8.66334 10.5768 8.50001 10.5768C8.33656 10.5768 8.19956 10.5215 8.08901 10.4108C7.97856 10.3002 7.92334 10.1632 7.92334 9.99984C7.92334 9.8364 7.97867 9.6994 8.08934 9.58884C8.20001 9.4784 8.33701 9.42318 8.50034 9.42318C8.66378 9.42318 8.80078 9.47851 8.91134 9.58918C9.02178 9.69984 9.07701 9.83684 9.07701 10.0002C9.07701 10.1636 9.02167 10.3006 8.91101 10.4112Z" fill="#000091"/>
<path d="M11.4943 10.4112C11.3837 10.5216 11.2467 10.5768 11.0833 10.5768C10.9199 10.5768 10.7829 10.5215 10.6723 10.4108C10.5618 10.3002 10.5065 10.1632 10.5065 9.99984C10.5065 9.8364 10.5619 9.6994 10.6727 9.58884C10.7833 9.4784 10.9203 9.42318 11.0837 9.42318C11.2471 9.42318 11.3841 9.47851 11.4947 9.58918C11.6051 9.69984 11.6603 9.83684 11.6603 10.0002C11.6603 10.1636 11.605 10.3006 11.4943 10.4112Z" fill="#000091"/>
</g>
</svg>
