<svg width="17" height="16" viewBox="0 0 17 16" fill="none" xmlns="http://www.w3.org/2000/svg">
<mask id="mask0_40002993_24970" style="mask-type:alpha" maskUnits="userSpaceOnUse" x="0" y="0" width="17" height="16">
<rect x="0.5" width="16" height="16" fill="#D9D9D9"/>
</mask>
<g mask="url(#mask0_40002993_24970)">
<path d="M7.80016 10.5437L10.2515 8.09234C10.3506 7.99323 10.4701 7.94257 10.6098 7.94034C10.7495 7.93823 10.8711 7.9889 10.9745 8.09234C11.0779 8.19579 11.1297 8.31629 11.1297 8.45384C11.1297 8.5914 11.0779 8.7119 10.9745 8.81534L8.222 11.568C8.10144 11.6885 7.96083 11.7487 7.80016 11.7487C7.6395 11.7487 7.49888 11.6885 7.37833 11.568L6.02583 10.2153C5.92672 10.1162 5.87605 9.99679 5.87383 9.85701C5.87172 9.71734 5.92238 9.59579 6.02583 9.49234C6.12927 9.3889 6.24977 9.33718 6.38733 9.33718C6.52489 9.33718 6.64539 9.3889 6.74883 9.49234L7.80016 10.5437ZM4.03866 14.3333C3.70188 14.3333 3.41683 14.2167 3.1835 13.9833C2.95016 13.75 2.8335 13.465 2.8335 13.1282V4.20518C2.8335 3.8684 2.95016 3.58334 3.1835 3.35001C3.41683 3.11668 3.70188 3.00001 4.03866 3.00001H4.96166V2.10251C4.96166 1.9564 5.01061 1.8344 5.1085 1.73651C5.20638 1.63873 5.32838 1.58984 5.4745 1.58984C5.62072 1.58984 5.74272 1.63873 5.8405 1.73651C5.93839 1.8344 5.98733 1.9564 5.98733 2.10251V3.00001H11.0387V2.08984C11.0387 1.94795 11.0865 1.82912 11.1822 1.73334C11.2779 1.63768 11.3968 1.58984 11.5387 1.58984C11.6806 1.58984 11.7993 1.63768 11.895 1.73334C11.9908 1.82912 12.0387 1.94795 12.0387 2.08984V3.00001H12.9617C13.2984 3.00001 13.5835 3.11668 13.8168 3.35001C14.0502 3.58334 14.1668 3.8684 14.1668 4.20518V13.1282C14.1668 13.465 14.0502 13.75 13.8168 13.9833C13.5835 14.2167 13.2984 14.3333 12.9617 14.3333H4.03866ZM4.03866 13.3333H12.9617C13.013 13.3333 13.06 13.312 13.1027 13.2692C13.1454 13.2265 13.1668 13.1795 13.1668 13.1282V6.87184H3.8335V13.1282C3.8335 13.1795 3.85488 13.2265 3.89766 13.2692C3.94033 13.312 3.98733 13.3333 4.03866 13.3333ZM3.8335 5.87184H13.1668V4.20518C13.1668 4.15384 13.1454 4.10684 13.1027 4.06418C13.06 4.0214 13.013 4.00001 12.9617 4.00001H4.03866C3.98733 4.00001 3.94033 4.0214 3.89766 4.06418C3.85488 4.10684 3.8335 4.15384 3.8335 4.20518V5.87184Z" fill="#666769"/>
</g>
</svg>
