<svg width="16" height="16" viewBox="0 0 16 16" fill="none" xmlns="http://www.w3.org/2000/svg">
<mask id="mask0_40002765_38750" style="mask-type:alpha" maskUnits="userSpaceOnUse" x="0" y="0" width="16" height="16">
<rect width="16" height="16" fill="#D9D9D9"/>
</mask>
<g mask="url(#mask0_40002765_38750)">
<path d="M7.05367 9.43079L5.505 7.88196C5.41267 7.78974 5.29662 7.74251 5.15684 7.74029C5.01717 7.73818 4.899 7.7854 4.80234 7.88196C4.70578 7.97863 4.6575 8.09574 4.6575 8.23329C4.6575 8.37085 4.70578 8.48796 4.80234 8.58463L6.63184 10.4141C6.75239 10.5346 6.893 10.5948 7.05367 10.5948C7.21434 10.5948 7.35495 10.5346 7.4755 10.4141L11.1845 6.70513C11.2767 6.61279 11.3239 6.49674 11.3262 6.35696C11.3283 6.21729 11.2811 6.09913 11.1845 6.00246C11.0878 5.9059 10.9707 5.85763 10.8332 5.85763C10.6956 5.85763 10.5785 5.9059 10.4818 6.00246L7.05367 9.43079ZM8.001 14.3333C7.125 14.3333 6.30161 14.1671 5.53084 13.8346C4.76006 13.5022 4.08961 13.051 3.5195 12.4811C2.94939 11.9112 2.498 11.2411 2.16534 10.4706C1.83278 9.70018 1.6665 8.87701 1.6665 8.00113C1.6665 7.12513 1.83273 6.30174 2.16517 5.53096C2.49761 4.76018 2.94878 4.08974 3.51867 3.51963C4.08856 2.94951 4.75873 2.49813 5.52917 2.16546C6.29961 1.8329 7.12278 1.66663 7.99867 1.66663C8.87467 1.66663 9.69806 1.83285 10.4688 2.16529C11.2396 2.49774 11.9101 2.9489 12.4802 3.51879C13.0503 4.08868 13.5017 4.75885 13.8343 5.52929C14.1669 6.29974 14.3332 7.1229 14.3332 7.99879C14.3332 8.87479 14.1669 9.69818 13.8345 10.469C13.5021 11.2397 13.0509 11.9102 12.481 12.4803C11.9111 13.0504 11.2409 13.5018 10.4705 13.8345C9.70006 14.167 8.87689 14.3333 8.001 14.3333Z" fill="#166735"/>
</g>
</svg>
