<svg width="16" height="16" viewBox="0 0 16 16" fill="none" xmlns="http://www.w3.org/2000/svg">
<g clip-path="url(#clip0_40002765_11270)">
<path d="M5.24855 10.7506C5.34513 10.8472 5.46222 10.8955 5.59982 10.8955C5.73742 10.8955 5.85451 10.8472 5.95109 10.7506L7.99982 8.70188L10.0652 10.7673C10.1575 10.8596 10.2718 10.903 10.4082 10.8974C10.5445 10.8918 10.6588 10.8429 10.7511 10.7506C10.8477 10.654 10.896 10.5369 10.896 10.3993C10.896 10.2617 10.8477 10.1446 10.7511 10.0481L8.70237 7.99933L10.7678 5.93393C10.8601 5.84163 10.9034 5.72732 10.8979 5.591C10.8923 5.45468 10.8434 5.34037 10.7511 5.24807C10.6545 5.15148 10.5374 5.10318 10.3998 5.10318C10.2622 5.10318 10.1451 5.15148 10.0486 5.24807L7.99982 7.29678L5.93442 5.2314C5.84212 5.13909 5.72781 5.09571 5.59149 5.10127C5.45517 5.10682 5.34085 5.15575 5.24855 5.24807C5.15197 5.34464 5.10367 5.46173 5.10367 5.59933C5.10367 5.73693 5.15197 5.85402 5.24855 5.9506L7.29727 7.99933L5.23189 10.0647C5.13958 10.157 5.0962 10.2713 5.10175 10.4077C5.10731 10.544 5.15624 10.6583 5.24855 10.7506ZM7.99982 14.3327C7.12033 14.3327 6.29534 14.1673 5.52484 13.8365C4.75433 13.5057 4.08403 13.0553 3.51394 12.4852C2.94386 11.9151 2.49344 11.2448 2.16267 10.4743C1.83189 9.70382 1.6665 8.87882 1.6665 7.99933C1.6665 7.11984 1.83189 6.29485 2.16267 5.52435C2.49344 4.75384 2.94386 4.08354 3.51394 3.51345C4.08403 2.94337 4.75433 2.49295 5.52484 2.16218C6.29534 1.8314 7.12033 1.66602 7.99982 1.66602C8.87931 1.66602 9.7043 1.8314 10.4748 2.16218C11.2453 2.49295 11.9156 2.94337 12.4857 3.51345C13.0558 4.08354 13.5062 4.75384 13.837 5.52435C14.1677 6.29485 14.3331 7.11984 14.3331 7.99933C14.3331 8.87882 14.1677 9.70382 13.837 10.4743C13.5062 11.2448 13.0558 11.9151 12.4857 12.4852C11.9156 13.0553 11.2453 13.5057 10.4748 13.8365C9.7043 14.1673 8.87931 14.3327 7.99982 14.3327ZM7.99982 13.3327C9.4776 13.3327 10.7359 12.8132 11.7748 11.7743C12.8137 10.7354 13.3332 9.47711 13.3332 7.99933C13.3332 6.52155 12.8137 5.26322 11.7748 4.22433C10.7359 3.18544 9.4776 2.666 7.99982 2.666C6.52204 2.666 5.26371 3.18544 4.22482 4.22433C3.18593 5.26322 2.66649 6.52155 2.66649 7.99933C2.66649 9.47711 3.18593 10.7354 4.22482 11.7743C5.26371 12.8132 6.52204 13.3327 7.99982 13.3327Z" fill="#B6010B"/>
</g>
<defs>
<clipPath id="clip0_40002765_11270">
<rect width="16" height="16" fill="white"/>
</clipPath>
</defs>
</svg>
