<svg width="16" height="16" viewBox="0 0 16 16" fill="none" xmlns="http://www.w3.org/2000/svg">
<mask id="mask0_40002765_38700" style="mask-type:alpha" maskUnits="userSpaceOnUse" x="0" y="0" width="16" height="16">
<rect width="16" height="16" fill="#D9D9D9"/>
</mask>
<g mask="url(#mask0_40002765_38700)">
<path d="M5.43573 13.3333H10.5639V11.3333C10.5639 10.5914 10.3178 9.94866 9.82547 9.40506C9.33317 8.86147 8.72462 8.58968 7.99983 8.58968C7.27504 8.58968 6.6665 8.86147 6.1742 9.40506C5.68189 9.94866 5.43573 10.5914 5.43573 11.3333V13.3333ZM3.56395 14.3333C3.42228 14.3333 3.30354 14.2853 3.20771 14.1894C3.11188 14.0936 3.06396 13.9748 3.06396 13.833C3.06396 13.6913 3.11188 13.5726 3.20771 13.4769C3.30354 13.3811 3.42228 13.3333 3.56395 13.3333H4.43576V11.3333C4.43576 10.6085 4.62188 9.94246 4.9941 9.33519C5.36632 8.72793 5.87423 8.28284 6.51783 7.99994C5.87423 7.71704 5.36632 7.27196 4.9941 6.66469C4.62188 6.05743 4.43576 5.3914 4.43576 4.66661V2.66661H3.56395C3.42228 2.66661 3.30354 2.61867 3.20771 2.52279C3.11188 2.42693 3.06396 2.30813 3.06396 2.16639C3.06396 2.02467 3.11188 1.90595 3.20771 1.81023C3.30354 1.71449 3.42228 1.66663 3.56395 1.66663H12.4357C12.5774 1.66663 12.6961 1.71457 12.7919 1.81044C12.8878 1.90632 12.9357 2.02512 12.9357 2.16684C12.9357 2.30858 12.8878 2.4273 12.7919 2.52303C12.6961 2.61875 12.5774 2.66661 12.4357 2.66661H11.5639V4.66661C11.5639 5.3914 11.3778 6.05743 11.0056 6.66469C10.6333 7.27196 10.1254 7.71704 9.48183 7.99994C10.1254 8.28284 10.6333 8.72793 11.0056 9.33519C11.3778 9.94246 11.5639 10.6085 11.5639 11.3333V13.3333H12.4357C12.5774 13.3333 12.6961 13.3812 12.7919 13.4771C12.8878 13.573 12.9357 13.6918 12.9357 13.8335C12.9357 13.9752 12.8878 14.0939 12.7919 14.1897C12.6961 14.2854 12.5774 14.3333 12.4357 14.3333H3.56395Z" fill="#000091"/>
</g>
</svg>
