<svg width="16" height="16" viewBox="0 0 16 16" fill="none" xmlns="http://www.w3.org/2000/svg">
<mask id="mask0_40002765_38745" style="mask-type:alpha" maskUnits="userSpaceOnUse" x="0" y="0" width="16" height="16">
<rect width="16" height="16" fill="#D9D9D9"/>
</mask>
<g mask="url(#mask0_40002765_38745)">
<path d="M2.87164 13.6667C2.53488 13.6667 2.24984 13.55 2.0165 13.3167C1.78317 13.0833 1.6665 12.7983 1.6665 12.4615V3.53851C1.6665 3.20175 1.78317 2.91671 2.0165 2.68337C2.24984 2.45004 2.53488 2.33337 2.87164 2.33337H13.128C13.4648 2.33337 13.7498 2.45004 13.9831 2.68337C14.2165 2.91671 14.3331 3.20175 14.3331 3.53851V12.4615C14.3331 12.7983 14.2165 13.0833 13.9831 13.3167C13.7498 13.55 13.4648 13.6667 13.128 13.6667H2.87164ZM2.87164 12.6667H13.128C13.1793 12.6667 13.2263 12.6453 13.2691 12.6026C13.3118 12.5598 13.3332 12.5128 13.3332 12.4615V3.53851C13.3332 3.48722 13.3118 3.4402 13.2691 3.39746C13.2263 3.35472 13.1793 3.33336 13.128 3.33336H2.87164C2.82035 3.33336 2.77333 3.35472 2.73059 3.39746C2.68785 3.4402 2.66649 3.48722 2.66649 3.53851V12.4615C2.66649 12.5128 2.68785 12.5598 2.73059 12.6026C2.77333 12.6453 2.82035 12.6667 2.87164 12.6667ZM5.99982 11.1667C6.1417 11.1667 6.2605 11.1188 6.35622 11.0231C6.45194 10.9274 6.4998 10.8086 6.4998 10.6667C6.4998 10.5248 6.45194 10.406 6.35622 10.3103C6.2605 10.2146 6.1417 10.1667 5.99982 10.1667H3.99982C3.85794 10.1667 3.73914 10.2146 3.64342 10.3103C3.5477 10.406 3.49984 10.5248 3.49984 10.6667C3.49984 10.8086 3.5477 10.9274 3.64342 11.0231C3.73914 11.1188 3.85794 11.1667 3.99982 11.1667H5.99982ZM9.69982 8.35389L9.10109 7.75516C9.00195 7.65601 8.88487 7.60709 8.74982 7.60838C8.61478 7.60965 8.49769 7.662 8.39855 7.76543C8.30624 7.86456 8.25945 7.98165 8.25817 8.11669C8.25688 8.25174 8.30581 8.36882 8.40495 8.46796L9.27804 9.34104C9.39855 9.46155 9.53914 9.52181 9.69982 9.52181C9.8605 9.52181 10.0011 9.46155 10.1216 9.34104L12.4114 7.05129C12.5105 6.95216 12.5611 6.83614 12.5633 6.70323C12.5654 6.57033 12.5148 6.45217 12.4114 6.34876C12.3079 6.24534 12.1891 6.19363 12.055 6.19363C11.9208 6.19363 11.802 6.24534 11.6986 6.34876L9.69982 8.35389ZM5.99982 8.50001C6.1417 8.50001 6.2605 8.45215 6.35622 8.35643C6.45194 8.2607 6.4998 8.1419 6.4998 8.00002C6.4998 7.85815 6.45194 7.73935 6.35622 7.64363C6.2605 7.5479 6.1417 7.50004 5.99982 7.50004H3.99982C3.85794 7.50004 3.73914 7.5479 3.64342 7.64363C3.5477 7.73935 3.49984 7.85815 3.49984 8.00002C3.49984 8.1419 3.5477 8.2607 3.64342 8.35643C3.73914 8.45215 3.85794 8.50001 3.99982 8.50001H5.99982ZM5.99982 5.83334C6.1417 5.83334 6.2605 5.78548 6.35622 5.68976C6.45194 5.59404 6.4998 5.47524 6.4998 5.33336C6.4998 5.19148 6.45194 5.07268 6.35622 4.97696C6.2605 4.88124 6.1417 4.83337 5.99982 4.83337H3.99982C3.85794 4.83337 3.73914 4.88124 3.64342 4.97696C3.5477 5.07268 3.49984 5.19148 3.49984 5.33336C3.49984 5.47524 3.5477 5.59404 3.64342 5.68976C3.73914 5.78548 3.85794 5.83334 3.99982 5.83334H5.99982Z" fill="#14171A" fill-opacity="0.8"/>
</g>
</svg>
