<svg width="17" height="16" viewBox="0 0 17 16" fill="none" xmlns="http://www.w3.org/2000/svg">
<mask id="mask0_40002993_22002" style="mask-type:alpha" maskUnits="userSpaceOnUse" x="0" y="0" width="17" height="16">
<rect x="0.5" width="16" height="16" fill="#D9D9D9"/>
</mask>
<g mask="url(#mask0_40002993_22002)">
<path d="M2.78386 13.6666C2.67086 13.6666 2.56938 13.639 2.47941 13.5837C2.38945 13.5285 2.31947 13.4557 2.26949 13.3653C2.21751 13.2756 2.18891 13.1783 2.18371 13.0736C2.17851 12.9689 2.20676 12.8652 2.26846 12.7626L7.97563 2.90402C8.03733 2.80133 8.11454 2.72542 8.20728 2.67627C8.30001 2.62712 8.39766 2.60254 8.50023 2.60254C8.60279 2.60254 8.70044 2.62712 8.79318 2.67627C8.88591 2.72542 8.96313 2.80133 9.02483 2.90402L14.732 12.7626C14.7937 12.8652 14.8219 12.9689 14.8167 13.0736C14.8115 13.1783 14.7829 13.2756 14.731 13.3653C14.681 13.4557 14.611 13.5285 14.521 13.5837C14.4311 13.639 14.3296 13.6666 14.2166 13.6666H2.78386ZM3.46689 12.6666H13.5336L8.50023 3.99994L3.46689 12.6666ZM8.50023 11.8717C8.65279 11.8717 8.78068 11.8201 8.88388 11.7169C8.98708 11.6137 9.03868 11.4858 9.03868 11.3333C9.03868 11.1807 8.98708 11.0528 8.88388 10.9496C8.78068 10.8464 8.65279 10.7948 8.50023 10.7948C8.34766 10.7948 8.21978 10.8464 8.11658 10.9496C8.01338 11.0528 7.96178 11.1807 7.96178 11.3333C7.96178 11.4858 8.01338 11.6137 8.11658 11.7169C8.21978 11.8201 8.34766 11.8717 8.50023 11.8717ZM8.50044 10.1282C8.64218 10.1282 8.76091 10.0802 8.85663 9.9844C8.95235 9.88857 9.00021 9.76983 9.00021 9.62817V7.29481C9.00021 7.15314 8.95228 7.03439 8.85641 6.93857C8.76053 6.84274 8.64173 6.79482 8.50001 6.79482C8.35828 6.79482 8.23955 6.84274 8.14383 6.93857C8.04811 7.03439 8.00025 7.15314 8.00025 7.29481V9.62817C8.00025 9.76983 8.04818 9.88857 8.14404 9.9844C8.23992 10.0802 8.35872 10.1282 8.50044 10.1282Z" fill="#14171A" fill-opacity="0.8"/>
</g>
</svg>
