<svg xmlns="http://www.w3.org/2000/svg" width="17" height="16" viewBox="0 0 17 16" fill="none">
  <path d="M5.16683 1.99984V0.666504H6.50016V1.99984H10.5002V0.666504H11.8335V1.99984H14.5002C14.8684 1.99984 15.1668 2.29832 15.1668 2.6665V5.99984H13.8335V3.33317H11.8335V4.6665H10.5002V3.33317H6.50016V4.6665H5.16683V3.33317H3.16683V12.6665H7.16683V13.9998H2.50016C2.13198 13.9998 1.8335 13.7014 1.8335 13.3332V2.6665C1.8335 2.29832 2.13198 1.99984 2.50016 1.99984H5.16683ZM11.8335 7.99984C10.3608 7.99984 9.16683 9.19377 9.16683 10.6665C9.16683 12.1392 10.3608 13.3332 11.8335 13.3332C13.3062 13.3332 14.5002 12.1392 14.5002 10.6665C14.5002 9.19377 13.3062 7.99984 11.8335 7.99984ZM7.8335 10.6665C7.8335 8.45737 9.62436 6.6665 11.8335 6.6665C14.0426 6.6665 15.8335 8.45737 15.8335 10.6665C15.8335 12.8756 14.0426 14.6665 11.8335 14.6665C9.62436 14.6665 7.8335 12.8756 7.8335 10.6665ZM11.1668 8.6665V10.9426L12.6954 12.4712L13.6382 11.5284L12.5002 10.3904V8.6665H11.1668Z" fill="#14171A" fill-opacity="0.48"/>
</svg>